<svg xmlns="http://www.w3.org/2000/svg" viewBox="0 0 1100 920" width="1100" height="920">
  <defs>
    <filter id="shadow" x="-20%" y="-20%" width="140%" height="140%">
      <feDropShadow dx="0" dy="10" stdDeviation="10" flood-color="#0F172A" flood-opacity="0.10"/>
    </filter>
  </defs>
  <g>
    <path d="M 372.46 217.50 A 205.00 205.00 0 0 1 744.97 383.35" fill="none" stroke="#155E8C" stroke-width="48" stroke-linecap="round"/>
    <path d="M 717.93 437.58 A 205.00 205.00 0 0 1 351.99 373.06" fill="none" stroke="#F39A1E" stroke-width="26" stroke-linecap="round" opacity="0.18"/>
    <rect x="696.93" y="428.58" width="42" height="18" rx="9" fill="#F39A1E" transform="rotate(125.00 717.93 437.58)"/><rect x="640.65" y="482.93" width="42" height="18" rx="9" fill="#F39A1E" transform="rotate(147.00 661.65 491.93)"/><rect x="568.12" y="512.23" width="42" height="18" rx="9" fill="#F39A1E" transform="rotate(169.00 589.12 521.23)"/><rect x="489.88" y="512.23" width="42" height="18" rx="9" fill="#F39A1E" transform="rotate(191.00 510.88 521.23)"/><rect x="421.35" y="482.93" width="34" height="18" rx="9" fill="#F39A1E" transform="rotate(213.00 438.35 491.93)"/>
    <g filter="url(#shadow)">
      <circle cx="550" cy="320" r="88" fill="#F7FAFC" stroke="#D9E2E8" stroke-width="12"/>
    </g>
    <line x1="606.00" y1="320.00" x2="618.00" y2="320.00" stroke="#155E8C" stroke-width="8" stroke-linecap="round"/><line x1="589.60" y1="359.60" x2="598.08" y2="368.08" stroke="#155E8C" stroke-width="8" stroke-linecap="round"/><line x1="550.00" y1="376.00" x2="550.00" y2="388.00" stroke="#155E8C" stroke-width="8" stroke-linecap="round"/><line x1="510.40" y1="359.60" x2="501.92" y2="368.08" stroke="#155E8C" stroke-width="8" stroke-linecap="round"/><line x1="494.00" y1="320.00" x2="482.00" y2="320.00" stroke="#155E8C" stroke-width="8" stroke-linecap="round"/><line x1="510.40" y1="280.40" x2="501.92" y2="271.92" stroke="#155E8C" stroke-width="8" stroke-linecap="round"/><line x1="550.00" y1="264.00" x2="550.00" y2="252.00" stroke="#155E8C" stroke-width="8" stroke-linecap="round"/><line x1="589.60" y1="280.40" x2="598.08" y2="271.92" stroke="#155E8C" stroke-width="8" stroke-linecap="round"/>
    <line x1="550" y1="320" x2="553.83" y2="276.17" stroke="#155E8C" stroke-width="14" stroke-linecap="round"/>
    <line x1="550" y1="320" x2="574.57" y2="302.79" stroke="#F39A1E" stroke-width="10" stroke-linecap="round"/>
    <circle cx="550" cy="320" r="13" fill="#155E8C"/>
    <g>
      <circle cx="506" cy="468" r="11" fill="#155E8C"/><circle cx="550" cy="456" r="11" fill="#F39A1E"/><circle cx="594" cy="468" r="11" fill="#155E8C"/><path d="M 488 496 Q 550 472 612 496" stroke="#6B7280" stroke-width="10" stroke-linecap="round" fill="none" opacity="0.55"/><path d="M 474 520 Q 550 502 626 520" stroke="#155E8C" stroke-width="18" stroke-linecap="round" fill="none" opacity="0.9"/>
    </g>
  </g>

  <g font-family="Inter, Poppins, Arial, sans-serif" font-weight="800" text-anchor="middle">
    <text x="550" y="790" font-size="108" letter-spacing="-2">
      <tspan fill="#F39A1E">time</tspan><tspan fill="#155E8C">work</tspan>
    </text>
    <text x="550" y="848" font-size="30" fill="#6B7280" font-weight="600" letter-spacing="1.2">
      Arbeitszeit · Schichten · Teams
    </text>
  </g>
</svg>