<svg xmlns="http://www.w3.org/2000/svg" viewBox="239 -6 640 640" width="1024" height="1024">
  <!-- App-Launcher-Icon: Marken-Emblem (Uhr + Team) auf AllTec-Anthrazit.
       Wortmarke bewusst weggelassen (bei Icon-Größe unleserlich).
       Emblem in AllTec-Gold, Ziffernmarken/Zeiger in Anthrazit auf heller Scheibe.
       viewBox auf das tatsächliche Emblem-Zentrum (~559,314) zentriert. -->
  <rect x="239" y="-6" width="640" height="640" fill="#13161B"/>
  <g>
    <!-- großer Bogen (Gold für Kontrast auf Anthrazit) -->
    <path d="M 372.46 217.50 A 205.00 205.00 0 0 1 744.97 383.35" fill="none" stroke="#D4A85A" stroke-width="48" stroke-linecap="round"/>
    <!-- zweiter Bogen + Akzentpunkte (Champagne, Marken-Akzent) -->
    <path d="M 717.93 437.58 A 205.00 205.00 0 0 1 351.99 373.06" fill="none" stroke="#E8C781" stroke-width="26" stroke-linecap="round" opacity="0.30"/>
    <rect x="696.93" y="428.58" width="42" height="18" rx="9" fill="#E8C781" transform="rotate(125.00 717.93 437.58)"/>
    <rect x="640.65" y="482.93" width="42" height="18" rx="9" fill="#E8C781" transform="rotate(147.00 661.65 491.93)"/>
    <rect x="568.12" y="512.23" width="42" height="18" rx="9" fill="#E8C781" transform="rotate(169.00 589.12 521.23)"/>
    <rect x="489.88" y="512.23" width="42" height="18" rx="9" fill="#E8C781" transform="rotate(191.00 510.88 521.23)"/>
    <rect x="421.35" y="482.93" width="34" height="18" rx="9" fill="#E8C781" transform="rotate(213.00 438.35 491.93)"/>
    <!-- Uhrenscheibe (hell) -->
    <circle cx="550" cy="320" r="88" fill="#FCFBF7" stroke="#E0DCCB" stroke-width="12"/>
    <!-- Ziffernmarken auf der hellen Scheibe (Anthrazit) -->
    <line x1="606.00" y1="320.00" x2="618.00" y2="320.00" stroke="#13161B" stroke-width="8" stroke-linecap="round"/>
    <line x1="589.60" y1="359.60" x2="598.08" y2="368.08" stroke="#13161B" stroke-width="8" stroke-linecap="round"/>
    <line x1="550.00" y1="376.00" x2="550.00" y2="388.00" stroke="#13161B" stroke-width="8" stroke-linecap="round"/>
    <line x1="510.40" y1="359.60" x2="501.92" y2="368.08" stroke="#13161B" stroke-width="8" stroke-linecap="round"/>
    <line x1="494.00" y1="320.00" x2="482.00" y2="320.00" stroke="#13161B" stroke-width="8" stroke-linecap="round"/>
    <line x1="510.40" y1="280.40" x2="501.92" y2="271.92" stroke="#13161B" stroke-width="8" stroke-linecap="round"/>
    <line x1="550.00" y1="264.00" x2="550.00" y2="252.00" stroke="#13161B" stroke-width="8" stroke-linecap="round"/>
    <line x1="589.60" y1="280.40" x2="598.08" y2="271.92" stroke="#13161B" stroke-width="8" stroke-linecap="round"/>
    <!-- Zeiger -->
    <line x1="550" y1="320" x2="553.83" y2="276.17" stroke="#13161B" stroke-width="14" stroke-linecap="round"/>
    <line x1="550" y1="320" x2="574.57" y2="302.79" stroke="#9B7839" stroke-width="10" stroke-linecap="round"/>
    <circle cx="550" cy="320" r="13" fill="#13161B"/>
    <!-- Team (auf Anthrazit → Gold, mittlerer Punkt Champagne) -->
    <circle cx="506" cy="468" r="11" fill="#D4A85A"/>
    <circle cx="550" cy="456" r="11" fill="#E8C781"/>
    <circle cx="594" cy="468" r="11" fill="#D4A85A"/>
    <path d="M 488 496 Q 550 472 612 496" stroke="#D4A85A" stroke-width="10" stroke-linecap="round" fill="none" opacity="0.45"/>
    <path d="M 474 520 Q 550 502 626 520" stroke="#D4A85A" stroke-width="18" stroke-linecap="round" fill="none" opacity="0.95"/>
  </g>
</svg>
